<svg xmlns="http://www.w3.org/2000/svg" viewBox="0 0 700 700" width="700" height="700" role="img" aria-label="Peine y tijeras cruzados con bote de pomada">
  <defs>
    <linearGradient id="bc2Bg" x1="0" y1="0" x2="1" y2="1">
      <stop offset="0" stop-color="#1a1b1e"/><stop offset="1" stop-color="#0e0e0f"/>
    </linearGradient>
  </defs>
  <rect width="700" height="700" fill="url(#bc2Bg)"/>
  <circle cx="350" cy="290" r="250" fill="#c8963e" opacity=".08"/>
  <!-- peine cruzado -->
  <g transform="rotate(-38 350 250)">
    <rect x="306" y="40" width="88" height="420" rx="18" fill="#c8963e"/>
    <g stroke="#0e0e0f" stroke-width="12" fill="none">
      <path d="M306 110 H 364"/><path d="M306 158 H 364"/>
      <path d="M306 206 H 364"/><path d="M306 254 H 364"/>
      <path d="M306 302 H 364"/><path d="M306 350 H 364"/>
      <path d="M306 398 H 364"/>
    </g>
  </g>
  <!-- tijeras cruzadas -->
  <g stroke="#f0e9dc" stroke-width="16" fill="none" stroke-linecap="round">
    <path d="M212 108 L 468 342"/>
    <path d="M488 108 L 232 342"/>
  </g>
  <g fill="none" stroke="#f0e9dc" stroke-width="16">
    <circle cx="196" cy="382" r="36"/>
    <circle cx="504" cy="382" r="36"/>
  </g>
  <circle cx="350" cy="234" r="12" fill="#c8963e"/>
  <!-- bote de pomada -->
  <g>
    <rect x="250" y="500" width="200" height="120" rx="20" fill="#b46a3c"/>
    <rect x="238" y="470" width="224" height="46" rx="20" fill="#c8963e"/>
    <circle cx="350" cy="560" r="34" fill="#f0e9dc"/>
  </g>
</svg>
