<svg xmlns="http://www.w3.org/2000/svg" viewBox="0 0 1600 900" width="1600" height="900" role="img" aria-label="Sillón clásico de barbero ante un espejo con bombillas y estantería con botes">
  <defs>
    <linearGradient id="bhsBg" x1="0" y1="0" x2="1" y2="1">
      <stop offset="0" stop-color="#1a1b1e"/><stop offset="1" stop-color="#0e0e0f"/>
    </linearGradient>
  </defs>
  <rect width="1600" height="900" fill="url(#bhsBg)"/>
  <circle cx="560" cy="430" r="360" fill="#c8963e" opacity=".07"/>
  <circle cx="1240" cy="640" r="260" fill="#b46a3c" opacity=".08"/>
  <path d="M0 800 H 1600" stroke="#c8963e" stroke-width="6" opacity=".25" fill="none"/>
  <!-- espejo con bombillas -->
  <rect x="1080" y="130" width="360" height="480" rx="26" fill="#1f2024" stroke="#c8963e" stroke-width="10"/>
  <path d="M1140 560 L 1360 200" stroke="#f0e9dc" stroke-width="16" opacity=".14" fill="none"/>
  <path d="M1190 580 L 1400 240" stroke="#f0e9dc" stroke-width="8" opacity=".1" fill="none"/>
  <g fill="#f0e9dc">
    <circle cx="1080" cy="200" r="14"/><circle cx="1080" cy="310" r="14"/>
    <circle cx="1080" cy="420" r="14"/><circle cx="1080" cy="530" r="14"/>
    <circle cx="1440" cy="200" r="14"/><circle cx="1440" cy="310" r="14"/>
    <circle cx="1440" cy="420" r="14"/><circle cx="1440" cy="530" r="14"/>
    <circle cx="1170" cy="130" r="14"/><circle cx="1260" cy="130" r="14"/><circle cx="1350" cy="130" r="14"/>
  </g>
  <!-- estantería con botes -->
  <g fill="#c8963e">
    <rect x="130" y="360" width="380" height="16" rx="8"/>
    <rect x="130" y="580" width="380" height="16" rx="8"/>
  </g>
  <g fill="#f0e9dc">
    <rect x="170" y="270" width="64" height="90" rx="10"/>
    <rect x="270" y="296" width="80" height="64" rx="12"/>
    <rect x="390" y="250" width="52" height="110" rx="10"/>
  </g>
  <g fill="#c8963e">
    <rect x="184" y="246" width="36" height="28" rx="6"/>
    <rect x="270" y="296" width="80" height="20" rx="10"/>
    <rect x="398" y="228" width="36" height="26" rx="6"/>
    <rect x="180" y="500" width="72" height="80" rx="12"/>
    <rect x="404" y="486" width="56" height="94" rx="10"/>
  </g>
  <rect x="292" y="470" width="76" height="110" rx="12" fill="#b46a3c"/>
  <rect x="292" y="470" width="76" height="24" rx="12" fill="#f0e9dc"/>
  <!-- sillón -->
  <g>
    <rect x="700" y="196" width="160" height="66" rx="30" fill="#c8963e"/>
    <rect x="656" y="252" width="248" height="310" rx="44" fill="#f0e9dc"/>
    <g stroke="#c8963e" stroke-width="8" fill="none" opacity=".7">
      <path d="M726 292 V 520"/><path d="M780 292 V 520"/><path d="M834 292 V 520"/>
    </g>
    <rect x="586" y="450" width="76" height="130" rx="26" fill="#c8963e"/>
    <rect x="898" y="450" width="76" height="130" rx="26" fill="#c8963e"/>
    <rect x="612" y="548" width="336" height="82" rx="30" fill="#f0e9dc"/>
    <rect x="612" y="548" width="336" height="82" rx="30" fill="none" stroke="#c8963e" stroke-width="8"/>
    <rect x="756" y="630" width="48" height="96" rx="12" fill="#c8963e"/>
    <rect x="700" y="690" width="160" height="22" rx="11" fill="#f0e9dc"/>
    <path d="M660 800 Q 780 728 900 800 Z" fill="#c8963e"/>
  </g>
</svg>
