<svg xmlns="http://www.w3.org/2000/svg" viewBox="0 0 800 600" width="800" height="600" role="img" aria-label="Obra de albañilería: pared de ladrillo a medias, nivel y carretilla">
  <defs>
    <linearGradient id="refAlbBg" x1="0" y1="0" x2="1" y2="1">
      <stop offset="0" stop-color="#9a3412"/><stop offset="1" stop-color="#c2410c"/>
    </linearGradient>
  </defs>
  <rect width="800" height="600" fill="url(#refAlbBg)"/>
  <circle cx="660" cy="110" r="160" fill="#faf8f5" opacity=".10"/>
  <rect x="0" y="470" width="800" height="130" fill="#221c17" opacity=".18"/>
  <!-- pared de ladrillo a medias -->
  <g fill="#faf8f5">
    <rect x="60" y="410" width="130" height="52" rx="6"/><rect x="200" y="410" width="130" height="52" rx="6"/><rect x="340" y="410" width="130" height="52" rx="6"/>
    <rect x="60" y="350" width="60" height="52" rx="6"/><rect x="130" y="350" width="130" height="52" rx="6"/><rect x="270" y="350" width="130" height="52" rx="6"/><rect x="410" y="350" width="60" height="52" rx="6"/>
    <rect x="60" y="290" width="130" height="52" rx="6"/><rect x="200" y="290" width="130" height="52" rx="6"/>
    <rect x="60" y="230" width="60" height="52" rx="6"/><rect x="130" y="230" width="130" height="52" rx="6"/>
    <rect x="60" y="170" width="130" height="52" rx="6"/>
  </g>
  <!-- nivel de burbuja sobre la pared -->
  <rect x="52" y="130" width="300" height="34" rx="10" fill="#f59e0b"/>
  <rect x="172" y="136" width="60" height="22" rx="8" fill="#faf8f5"/>
  <circle cx="202" cy="147" r="8" fill="#c2410c"/>
  <!-- carretilla -->
  <path d="M520 330 h200 l-30 90 h-140 z" fill="#f59e0b"/>
  <path d="M540 300 C570 280 690 280 700 330 L520 330 Z" fill="#faf8f5"/>
  <path d="M520 330 L480 420 M720 330 L760 420" fill="none" stroke="#221c17" stroke-width="14" stroke-linecap="round"/>
  <circle cx="620" cy="452" r="34" fill="#221c17"/>
  <circle cx="620" cy="452" r="12" fill="#faf8f5"/>
  <path d="M582 420 L620 452 L658 420" fill="none" stroke="#221c17" stroke-width="14" stroke-linecap="round" stroke-linejoin="round"/>
</svg>
